<svg width="96" height="96" xmlns="http://www.w3.org/2000/svg" xmlns:xlink="http://www.w3.org/1999/xlink" xml:space="preserve" overflow="hidden"><g transform="translate(-14 -21)"><path d="M33.054 113.688 34.9232 107.987 36.8237 108.61 34.9545 114.311Z" fill="#92D050"/><path d="M47.9972 68.0745 49.8649 62.3726 51.7655 62.9952 49.8979 68.6971Z" fill="#92D050"/><path d="M36.7895 102.284 38.6587 96.5829 40.5592 97.206 38.6899 102.907Z" fill="#92D050"/><path d="M44.262 79.4779 46.1286 73.7757 48.0293 74.3978 46.1628 80.1001Z" fill="#92D050"/><path d="M40.5256 90.8807 42.3948 85.1793 44.2953 85.8024 42.426 91.5038Z" fill="#92D050"/><path d="M72.244 62.9936 74.1446 62.371 76.0123 68.073 74.1116 68.6955Z" fill="#92D050"/><path d="M83.4502 97.2053 85.3506 96.5822 87.2199 102.284 85.3194 102.907Z" fill="#92D050"/><path d="M87.1864 108.609 89.087 107.987 90.9548 113.689 89.0541 114.311Z" fill="#92D050"/><path d="M79.7156 85.8024 81.616 85.1793 83.4853 90.8807 81.5848 91.5038Z" fill="#92D050"/><path d="M75.9797 74.3988 77.8802 73.7758 79.7494 79.4772 77.8489 80.1002Z" fill="#92D050"/><path d="M70.152 81.1 57.858 74 50.758 86.294 63.052 93.394ZM53.492 85.564 58.592 76.734 67.422 81.834 62.322 90.664Z" fill="#92D050"/><path d="M65.8 95.362 70.163 102.2 77.005 97.838 72.643 91ZM70.773 99.442 68.562 95.973 72.031 93.762 74.242 97.231Z" fill="#92D050"/><path d="M56.005 106.919 63.924 108.505 65.509 100.586 57.59 99ZM59.159 101.354 63.159 102.154 62.359 106.154 58.359 105.354Z" fill="#92D050"/><path d="M43.04 58.25 39.372 61.811C39.353 61.802 39.337 61.789 39.318 61.781 38.077 61.2473 36.6383 61.8206 36.1046 63.0616 35.5709 64.3026 36.1443 65.7413 37.3852 66.275 38.6262 66.8087 40.0649 66.2354 40.5986 64.9944 40.8268 64.4638 40.8599 63.8696 40.692 63.317L45.562 58.588C44.7073 58.4827 43.8667 58.37 43.04 58.25Z" fill="#92D050"/><path d="M85.755 66.841C87.004 67.3168 88.4022 66.69 88.878 65.441 89.3538 64.192 88.727 62.7938 87.478 62.318 86.9535 62.1208 86.3764 62.1134 85.847 62.297L81.838 58.419C81.0073 58.5363 80.1603 58.6447 79.297 58.744L84.383 63.663C84.375 63.682 84.363 63.698 84.355 63.718 83.8792 64.967 84.506 66.3652 85.7549 66.841 85.755 66.841 85.755 66.841 85.755 66.841Z" fill="#92D050"/><path d="M79.41 36.442C76.7466 29.5572 70.1479 24.9979 62.766 24.942L62.63 24.942C55.3692 24.952 48.8254 29.3234 46.036 36.027 42.3912 36.3936 38.7724 36.9837 35.2 37.794 26.494 39.842 22.247 42.738 22.218 46.647 22.196 49.471 24.487 51.863 29.026 53.757 30.9893 54.5495 33.0081 55.1972 35.066 55.695 43.912 57.6919 52.9565 58.6755 62.025 58.627 62.425 58.627 62.823 58.627 63.219 58.627 71.8868 58.7375 80.5403 57.89 89.022 56.1 97.729 54.051 101.976 51.155 102.005 47.246 102.053 40.8 89.845 37.815 79.41 36.442ZM62.63 26.936 62.751 26.936C71.5746 27.0026 78.6736 34.2095 78.607 43.0331 78.607 43.034 78.607 43.035 78.607 43.036 78.598 44.236 77.752 45.328 76.092 46.27 73.352 47.825 68.286 48.79 62.87 48.79 58.6916 48.8898 54.5311 48.2127 50.6 46.793 50.0914 46.5835 49.5973 46.3403 49.121 46.065 47.476 45.1 46.647 44 46.656 42.792 46.7446 34.026 53.8635 26.9596 62.63 26.936ZM88.564 54.153C79.8443 55.9799 70.9452 56.8099 62.038 56.627 53.1287 56.6766 44.2426 55.7131 35.551 53.755 33.5917 53.2816 31.6695 52.6656 29.8 51.912 26.083 50.361 24.206 48.595 24.221 46.662 24.241 43.89 28.197 41.497 35.661 39.741 38.8502 39.0177 42.0781 38.4775 45.329 38.123 44.9029 39.6383 44.6783 41.2031 44.661 42.777 44.651 44.132 45.241 46.102 48.114 47.789 48.6682 48.1108 49.2435 48.3947 49.836 48.639 54.0095 50.1585 58.4296 50.8869 62.87 50.787 68.385 50.787 73.842 49.844 77.079 48.007 79.979 46.362 80.597 44.402 80.607 43.047 80.6155 41.5329 80.4334 40.0237 80.065 38.555 92.599 40.31 100.032 43.522 100.005 47.231 99.984 50 96.028 52.4 88.564 54.153Z" fill="#92D050"/><path d="M28.677 45.584C27.577 45.458 26.635 45.853 26.565 46.467 26.495 47.081 27.325 47.68 28.421 47.807 29.517 47.934 30.463 47.538 30.534 46.924 30.605 46.31 29.773 45.71 28.677 45.584Z" fill="#92D050"/><path d="M62.583 52.847C61.483 52.793 60.564 53.247 60.534 53.867 60.504 54.487 61.373 55.028 62.475 55.082 63.577 55.136 64.494 54.682 64.524 54.061 64.554 53.44 63.685 52.9 62.583 52.847Z" fill="#92D050"/><path d="M95.945 45.665C94.845 45.539 93.903 45.934 93.833 46.547 93.763 47.16 94.593 47.761 95.689 47.887 96.785 48.013 97.731 47.619 97.802 47.005 97.873 46.391 97.041 45.791 95.945 45.665Z" fill="#92D050"/><path d="M51.2 38.207C51.3383 38.2767 51.4911 38.313 51.646 38.313 52.0268 38.3151 52.3758 38.1007 52.546 37.76 53.5628 35.7329 55.0907 34.006 56.979 32.75 57.4372 32.4416 57.5586 31.8202 57.2502 31.362 56.9441 30.9073 56.329 30.7837 55.871 31.085 53.6928 32.5342 51.9301 34.5265 50.757 36.865 50.5092 37.3579 50.7074 37.9585 51.2 38.207Z" fill="#92D050"/></g></svg>